PathFileType	4	(X/Y/Z)	Patient4_TMGait_0pt6_01_left_29.trc.trc
DataRate	CameraRate	NumFrames	NumMarkers	Units	OrigDataRate	OrigDataStartFrame	OrigNumFrames
82.840236686391	82.840236686391	4	33	mm	82.840236686391	71	       141
Frame#	Time	Sacral			L.Shoulder			Chest			R.Shoulder			Neck			R.ASIS			L.ASIS			R.Thigh.Superior			R.Thigh.Lateral			R.Thigh.Inferior			R.Patella			L.Thigh.Superior			L.Thigh.Lateral			L.Thigh.Inferior			L.Patella			L.Shank.Superior			L.Shank.Lateral			L.Shank.Inferior			R.Shank.Superior			R.Shank.Lateral			R.Shank.Inferior			R.Heel			R.Midfoot.Superior			R.Midfoot.Lateral			R.Toe			L.Heel			L.Midfoot.Lateral			L.Midfoot.Superior			L.Toe			L.Elbow			L.Wrist			R.Elbow			R.Wrist			
		X1	Y1	Z1	X2	Y2	Z2	X3	Y3	Z3	X4	Y4	Z4	X5	Y5	Z5	X6	Y6	Z6	X7	Y7	Z7	X8	Y8	Z8	X9	Y9	Z9	X10	Y10	Z10	X11	Y11	Z11	X12	Y12	Z12	X13	Y13	Z13	X14	Y14	Z14	X15	Y15	Z15	X16	Y16	Z16	X17	Y17	Z17	X18	Y18	Z18	X19	Y19	Z19	X20	Y20	Z20	X21	Y21	Z21	X22	Y22	Z22	X23	Y23	Z23	X24	Y24	Z24	X25	Y25	Z25	X26	Y26	Z26	X27	Y27	Z27	X28	Y28	Z28	X29	Y29	Z29	X30	Y30	Z30	X31	Y31	Z31	X32	Y32	Z32	X33	Y33	Z33	

71	36.135000000000	711.639586217824	1002.411638976250	444.497928361910	894.086759559782	1440.235604415505	289.237988799652	985.145162534881	1366.708917961167	454.175441077513	887.286939629449	1430.793845948042	623.076472161140	860.098651093886	1493.216620181948	444.374067690700	932.361311275257	941.659343659114	577.114716974780	934.769688473674	962.033353003973	301.991784005936	1007.059887531171	767.327823164109	548.275729985995	959.428746856438	644.200464713378	617.168058142720	1050.042326525715	608.771364834785	539.089403700025	1082.476888798899	526.089895536638	553.269378405974	943.818239317739	732.067857994522	334.090476746456	833.040777567851	633.405649109995	269.382098306136	891.688661356580	543.274508553184	338.897027442548	876.823663933973	476.739756877619	349.660870124129	846.507392239003	408.640142172980	341.322778322956	748.018688657953	301.028477024893	292.596076696235	787.588568448094	188.402339919602	367.547558181690	1068.007959990753	436.483486694568	560.364240141455	1015.150382756628	320.001553615980	618.290221367175	1086.856820950518	236.898194877496	565.325231765399	1000.373156140763	45.783226362385	528.511414398295	1156.014505284097	126.945214494654	575.130106179280	1081.396992268184	47.347268924603	605.830206616787	1281.522745367956	97.758922009698	607.879371267827	651.428061415487	37.741041215675	417.017178148547	720.404931741519	34.925790331959	331.992560867064	805.198703346724	95.489816210636	355.083472198115	931.879879538832	43.128251374384	318.634596517454	982.881293130492	1118.991390969923	132.283974724829	1237.469805087030	1070.113086948195	135.752587851991	746.483649798709	1111.085858023655	716.709358400506	716.376643940161	851.711181849360	716.100973135893	
72	36.147071428571	713.501757527153	1000.763417491292	445.928205178612	894.140204236619	1438.880650860017	290.522898698821	985.278056886716	1366.015037224390	455.658238266756	886.988023240569	1430.008291776844	624.358777862829	859.824832195033	1491.919070267845	445.596695500178	934.195493829439	940.316228402054	578.703518257480	936.912274503192	960.892258090228	303.603526581841	1007.870137060725	764.318425993077	550.421451968503	957.523237930230	641.154998099455	617.596380412569	1048.561024170084	605.455455265841	540.368263649965	1079.132767584268	522.653185364205	553.477380884829	943.724958689815	730.279117429439	335.081335519825	831.834183840002	632.644015856384	270.503796113816	889.751255229602	541.869295842262	339.666370363353	874.263648361535	475.177656044979	350.391615317007	843.063925882039	407.445923696676	342.013002224897	743.206039017958	301.104956101345	293.004310561588	781.390607614077	187.828171147611	367.692118555220	1064.834202384306	432.872404272395	560.341946270475	1011.281352687782	316.367661802924	617.304133872330	1083.072925865263	233.433283861812	564.369592117934	996.059614253037	43.779602714290	526.437713418309	1152.073076681403	123.236046075603	574.058673299035	1076.467574338574	44.903461077939	604.348680654847	1276.950967550831	92.736059735235	607.491560922717	644.091990702391	37.675428429948	416.903474501057	713.139276140441	34.809163137536	331.963516912536	797.991353628996	95.384247580297	355.050264616794	924.673122614800	42.826457689909	318.601488288073	983.577766977215	1117.493937830397	134.314968371091	1238.688800390077	1072.901099677938	138.300142415910	744.483040201565	1111.502071999350	717.829475063275	712.328804984592	852.307124837439	717.196547526128	
73	36.159142857143	715.492204924919	999.051484052332	447.600498029374	894.074431436743	1437.437948908578	291.858878333727	985.420539568974	1365.357742886400	457.187292898154	886.684081675315	1429.179868182602	625.729170686637	859.510327013465	1490.587682055249	446.859144574017	936.246103645207	938.973318057293	580.400838881429	939.169516116800	959.705255899032	305.369446121287	1009.164179673462	761.398228037590	552.528361996252	956.139371396241	638.258869370645	617.857958696565	1047.567491456990	602.321011770614	541.422515157942	1076.192447527266	519.114765487341	553.420706439212	943.976663690328	728.499324813134	336.113030042962	830.961123872101	631.842910177975	271.818325544267	888.328889492278	540.413387610689	340.501669117749	872.293205604028	473.450644981440	351.191324956991	840.059705501182	406.153730530779	342.781622786333	738.653327003929	301.259922950654	293.516424221615	775.315040966102	187.246933902733	367.843181016665	1061.680226462058	429.119423660702	560.055186824449	1007.013084271428	312.879806277161	616.255371834926	1078.242245542996	229.735907506676	563.180852077244	989.389885444169	42.342029280509	524.586394239032	1146.479191353260	118.997016662524	572.603925943734	1069.397747109315	42.619103389734	602.874377569511	1270.579998269555	86.287001332188	606.358025653724	636.731660190123	37.670947129038	416.735075115973	705.886161517763	34.679135227133	331.919322112633	790.820693862006	95.285653474760	354.973905016854	917.506575622068	42.487295103377	318.545780623697	983.923792791236	1115.669762722476	136.526636460254	1239.412796231097	1074.564185315115	140.921360756404	743.407131650152	1111.345835979417	719.024126475276	709.830561388412	852.261089178447	718.402776258175	
74	36.171214285714	717.567688566650	997.355394426094	449.494677757680	893.927615953891	1435.960864866451	293.247248616859	985.596230414860	1364.768269572112	458.767049597621	886.401454975895	1428.352313314127	627.190248546437	859.199932599409	1489.286338007859	448.160669115963	938.454464970016	937.696092685331	582.211922985460	941.483885825888	958.522508787909	307.293377168588	1010.840721693558	758.629177194435	554.571320955846	955.259183051455	635.617172672126	618.036747605544	1046.985858448423	599.451307786830	542.258653088343	1073.674081885015	515.632644050695	553.157397955347	944.585857761742	726.801692113451	337.198137664328	830.465788421862	631.031813305536	273.325151493166	887.500572233608	538.946369277761	341.403173521479	871.017593412260	471.576173198245	352.027591669887	837.562957350537	404.788813566269	343.608933461464	734.416012339932	301.546285460063	294.122307737629	769.409579877902	186.705547946035	367.977101391962	1058.669770919694	425.411780696976	559.589308014444	1002.658873098418	309.639122602539	615.258065079869	1072.806411622878	225.999170153538	561.856693895944	981.117786623797	41.386827106486	523.039203117702	1139.805631539479	114.558155792523	570.881976475869	1060.940820297012	40.598152079162	601.503402225996	1263.071444523182	79.058859005126	604.630807087640	629.356741417726	37.827970726518	416.497806073001	698.653128182221	34.574237941167	331.850339402142	783.718726327196	95.205231841282	354.829147472291	910.385543150116	42.112275004417	318.464540076902	983.905200990949	1113.547014983659	138.921266012289	1239.658832620925	1075.083137232589	143.599354679988	743.264659791233	1110.644719547858	720.299205500070	708.899780400707	851.596165545795	719.737869491282	
